<svg id="Capa_1" data-name="Capa 1" xmlns="http://www.w3.org/2000/svg" viewBox="0 0 1174 1152.54"><defs><style>.cls-1{fill:#fff;}</style></defs><title>logo</title><path class="cls-1" d="M121.66,1264V1069.09H863.48V1264Zm41.91-915.75V153.34H534.48l21,194.89ZM368.94,1264V153.34H549.15l41.91,318.53V1264ZM591.06,786.19l-65-347.85H612Q630.88,132.4,918,132.39q171.84,0,249.37,98.49t77.54,318.52h-220q0-121.53-36.15-175T871.86,321q-141.45,0-211.12,121T591.06,786.19Z" transform="translate(-121.66 -132.39)"/><path class="cls-1" d="M1140.59,1284.93q-63.91,0-109.49-45.57t-45.58-109.5q0-65,45.58-110t109.49-45.05q65,0,110,45.05t45.05,110q0,63.93-45.05,109.5T1140.59,1284.93Z" transform="translate(-121.66 -132.39)"/></svg>